<?xml version="1.0" encoding="utf-8"?>
<!-- Generator: Adobe Illustrator 24.0.1, SVG Export Plug-In . SVG Version: 6.00 Build 0)  -->
<svg version="1.1" id="Layer_1" xmlns="http://www.w3.org/2000/svg" xmlns:xlink="http://www.w3.org/1999/xlink" x="0px" y="0px"
	 viewBox="0 0 1000 1000" style="enable-background:new 0 0 1000 1000;" xml:space="preserve">
<style type="text/css">
	.st0{clip-path:url(#SVGID_2_);}
	.st1{fill:#FFEDC9;}
	.st2{fill-opacity:0;}
	.st3{fill:#FFFFFF;}
	.st4{fill:#F4DBA8;}
	.st5{fill:#1A281F;}
	.st6{fill:#E29C9C;}
</style>
<g>
	<g>
		<g>
			<g transform="matrix(1.048050045967102,0,0,1.048050045967102,-60.050048828125,-28.050048828125)">
				<g>
					<defs>
						<rect id="SVGID_1_" x="-92.4" y="-218.32" width="1290.1" height="1463.41"/>
					</defs>
					<clipPath id="SVGID_2_">
						<use xlink:href="#SVGID_1_"  style="overflow:visible;"/>
					</clipPath>
					<g transform="matrix(2.461899995803833,0,0,2.7926299571990967,-182.949951171875,-396.31494140625)" class="st0">
						<g transform="matrix(1,0,0,1,500,500)">
							<g transform="matrix(1,0,0,1,0,0)">
								<path class="st1" d="M-376.21-286.25c-7.5,7-7.5,78,12.5,108.5c20,30.5,45,38,45,38l-11,8l-9,8l22,10l45.5,25
									c0,0,101-1.5,103-1.5s63.25-23.25,67-24.5s21.5-9.25,21.5-9.25s-8.5-7.75-19.5-15.5c81-42.25,63.5-130.75,57-144.75
									c-78.5-14-115.5,38.5-123,47c-1-1-9.5-8-18.5-13.5s-7,1-7.5,6c-4-1-26.5-20.5-26.5-20.5l-11-1l-1,13l-34-16
									c0,0-2,1-5.5,10.5C-300.71-285.25-368.71-293.25-376.21-286.25z"/>
								<path class="st2" d="M-376.21-286.25c-7.5,7-7.5,78,12.5,108.5c20,30.5,45,38,45,38l-11,8l-9,8l22,10l45.5,25
									c0,0,101-1.5,103-1.5s63.25-23.25,67-24.5s21.5-9.25,21.5-9.25s-8.5-7.75-19.5-15.5c81-42.25,63.5-130.75,57-144.75
									c-78.5-14-115.5,38.5-123,47c-1-1-9.5-8-18.5-13.5s-7,1-7.5,6c-4-1-26.5-20.5-26.5-20.5l-11-1l-1,13l-34-16
									c0,0-2,1-5.5,10.5C-300.71-285.25-368.71-293.25-376.21-286.25z"/>
							</g>
						</g>
						<g transform="matrix(1,0,0,1,500,500)">
							<g transform="matrix(1,0,0,1,0,0)">
								<path class="st3" d="M-162.21-117.25c-19.5,2.5-8.5,18-49,18c0,25,2,49.5,2,49.5s30.5,1,33-0.5s17-13,17-13s51-23,58-31
									s13.5-11,13.5-11l-13.5-9C-101.21-114.25-142.71-119.75-162.21-117.25z"/>
								<path class="st2" d="M-162.21-117.25c-19.5,2.5-8.5,18-49,18c0,25,2,49.5,2,49.5s30.5,1,33-0.5s17-13,17-13s51-23,58-31
									s13.5-11,13.5-11l-13.5-9C-101.21-114.25-142.71-119.75-162.21-117.25z"/>
							</g>
						</g>
						<g transform="matrix(1,0,0,1,500,500)">
							<g transform="matrix(1,0,0,1,0,0)">
								<path class="st4" d="M-70.71-283.25c-1-0.5,14.5,3,0,24.5c-24.51,36.34-6.5,42.25-43,58.75c1,21.5,8,40.25,10,46.75
									s1.5,14,3.5,14s50-38.5,56.5-51.5s7-80,5-89C-40.71-288.75-69.71-282.75-70.71-283.25z"/>
								<path class="st2" d="M-70.71-283.25c-1-0.5,14.5,3,0,24.5c-24.51,36.34-6.5,42.25-43,58.75c1,21.5,8,40.25,10,46.75
									s1.5,14,3.5,14s50-38.5,56.5-51.5s7-80,5-89C-40.71-288.75-69.71-282.75-70.71-283.25z"/>
							</g>
						</g>
						<g transform="matrix(-1,0,0,1,469,500)">
							<g transform="matrix(1,0,0,1,0,0)">
								<path class="st4" d="M316.21-283.25c-1-0.5,14.5,3,0,24.5c-24.51,36.34-6.5,42.25-43,58.75c1,21.5,8,40.25,10,46.75
									s1.5,14,3.5,14c0.97,0,14.71-7.02,27.31-17.8c13.43-11.49,25.83-26.99,29.19-33.7c6.5-13,7-80,5-89
									S317.21-282.75,316.21-283.25z"/>
								<path class="st2" d="M316.21-283.25c-1-0.5,14.5,3,0,24.5c-24.51,36.34-6.5,42.25-43,58.75c1,21.5,8,40.25,10,46.75
									s1.5,14,3.5,14c0.97,0,14.71-7.02,27.31-17.8c13.43-11.49,25.83-26.99,29.19-33.7c6.5-13,7-80,5-89
									S317.21-282.75,316.21-283.25z"/>
							</g>
						</g>
						<g transform="matrix(-1,0,0,1,467,500)">
							<g transform="matrix(1,0,0,1,0,0)">
								<path class="st3" d="M223.71-117.25c-19.5,2.5-8.5,18-49,18c0,25,2,49.5,2,49.5s30.5,1,33-0.5s17-13,17-13s51-23,58-31
									s13.5-11,13.5-11l-13.5-9C284.71-114.25,243.21-119.75,223.71-117.25z"/>
								<path class="st2" d="M223.71-117.25c-19.5,2.5-8.5,18-49,18c0,25,2,49.5,2,49.5s30.5,1,33-0.5s17-13,17-13s51-23,58-31
									s13.5-11,13.5-11l-13.5-9C284.71-114.25,243.21-119.75,223.71-117.25z"/>
							</g>
						</g>
						<g transform="matrix(1,0,0,1,481,509)">
							<g transform="matrix(1,0,0,1,0,0)">
								<path class="st5" d="M-163.71-194.25l-15,54l56.5,4.5l-6.5-34l-24,8.5l11,9.5l-2.5-8l11.5-3v19l-29.5-6l3.5-30.5l55.5,9.5
									l-5,48l11-51L-163.71-194.25z"/>
								<path class="st2" d="M-163.71-194.25l-15,54l56.5,4.5l-6.5-34l-24,8.5l11,9.5l-2.5-8l11.5-3v19l-29.5-6l3.5-30.5l55.5,9.5
									l-5,48l11-51L-163.71-194.25z"/>
							</g>
						</g>
						
							<g transform="matrix(-0.8910065293312073,0.45399048924446106,-0.45399048924446106,-0.8910065293312073,490.64129638671875,534.8283081054688)">
							<g transform="matrix(1,0,0,1,0,0)">
								<path class="st5" d="M116.09,244.5l-15,54l56.5,4.5l-6.5-34l-24,8.5l11,9.5l-2.5-8l11.5-3v19l-29.5-6l3.5-30.5l55.5,9.5
									l-5,48l11-51L116.09,244.5z"/>
								<path class="st2" d="M116.09,244.5l-15,54l56.5,4.5l-6.5-34l-24,8.5l11,9.5l-2.5-8l11.5-3v19l-29.5-6l3.5-30.5l55.5,9.5
									l-5,48l11-51L116.09,244.5z"/>
							</g>
						</g>
						<g transform="matrix(0.6306800246238708,0,0,0.7298099994659424,503.771240234375,523.8927001953125)">
							<g transform="matrix(1,0,0,1,0,0)">
								<path class="st5" d="M-263.02-186.63c2.5-10.5-2.25-3.75-3.25,3s15.75,51.25,2,65.75c-26.25,27.69-75.9,12.29-75.9,12.29
									s0,3.75,0,13.25c38.15,6.3,66.65,0.21,83.65-25.29S-265.52-176.13-263.02-186.63z"/>
								<path class="st2" d="M-263.02-186.63c2.5-10.5-2.25-3.75-3.25,3s15.75,51.25,2,65.75c-26.25,27.69-75.9,12.29-75.9,12.29
									s0,3.75,0,13.25c38.15,6.3,66.65,0.21,83.65-25.29S-265.52-176.13-263.02-186.63z"/>
							</g>
						</g>
						<g transform="matrix(-0.6309999823570251,0,0,0.7298099994659424,459.2384033203125,523.8927001953125)">
							<g transform="matrix(1,0,0,1,0,0)">
								<path class="st5" d="M345.57-186.63c2.5-10.5-2.25-3.75-3.25,3s15.75,51.25,2,65.75c-26.25,27.69-75.9,12.29-75.9,12.29
									s0,3.75,0,13.25c38.15,6.3,66.65,0.21,83.65-25.29S343.07-176.13,345.57-186.63z"/>
								<path class="st2" d="M345.57-186.63c2.5-10.5-2.25-3.75-3.25,3s15.75,51.25,2,65.75c-26.25,27.69-75.9,12.29-75.9,12.29
									s0,3.75,0,13.25c38.15,6.3,66.65,0.21,83.65-25.29S343.07-176.13,345.57-186.63z"/>
							</g>
						</g>
						
							<g transform="matrix(0.4694715738296509,-0.882947564125061,0.882947564125061,0.4694715738296509,362.1400146484375,661.4011840820312)">
							<g transform="matrix(1,0,0,1,0,0)">
								<path class="st5" d="M193.01-157.49c-14-8-12.5,2.5-3,6.5C199.51-146.99,207.01-149.49,193.01-157.49z"/>
								<path class="st2" d="M193.01-157.49c-14-8-12.5,2.5-3,6.5C199.51-146.99,207.01-149.49,193.01-157.49z"/>
							</g>
						</g>
						
							<g transform="matrix(-0.4694715738296509,-0.882947564125061,-0.882947564125061,0.4694715738296509,605.8599853515625,661.4011840820312)">
							<g transform="matrix(1,0,0,1,0,0)">
								<path class="st5" d="M374.42,183.7c-14-8-12.5,2.5-3,6.5S388.42,191.7,374.42,183.7z"/>
								<path class="st2" d="M374.42,183.7c-14-8-12.5,2.5-3,6.5S388.42,191.7,374.42,183.7z"/>
							</g>
						</g>
						<g transform="matrix(1,0,0,1,510,500)">
							<g transform="matrix(1,0,0,1,0,0)">
								<path class="st5" d="M-47.21-288.75c-42.5-23.5-115.5,20.5-128.5,50c2.5,2.5,5.5-1.5,5.5-1.5s30.5-50,116-40
									c6,61.5,3,109-57.25,140.25c2,3,5.5,11.5,18,15.25c-2.25,1.5-10.25,8-20.5,10c3.5,3.5,9,7.75,13.25,9.75
									c-4.5,2.25-22.75,20.25-69.75,41c-1.25,1-0.25,1.75,1,1.25c37.5-15,56.25-25.5,73.25-42.5c-4.5-7-10.5-9-14.5-9
									c6-2,26.5-3,30.5-13.5c-15.5-1.5-24-10-28-12C-86.21-153.25-27.05-172.86-47.21-288.75z"/>
								<path class="st2" d="M-47.21-288.75c-42.5-23.5-115.5,20.5-128.5,50c2.5,2.5,5.5-1.5,5.5-1.5s30.5-50,116-40
									c6,61.5,3,109-57.25,140.25c2,3,5.5,11.5,18,15.25c-2.25,1.5-10.25,8-20.5,10c3.5,3.5,9,7.75,13.25,9.75
									c-4.5,2.25-22.75,20.25-69.75,41c-1.25,1-0.25,1.75,1,1.25c37.5-15,56.25-25.5,73.25-42.5c-4.5-7-10.5-9-14.5-9
									c6-2,26.5-3,30.5-13.5c-15.5-1.5-24-10-28-12C-86.21-153.25-27.05-172.86-47.21-288.75z"/>
							</g>
						</g>
						<g transform="matrix(-1,0,0,1,457,500)">
							<g transform="matrix(1,0,0,1,0,0)">
								<path class="st5" d="M338.71-288.75c-32.57-18.01-83.93,3.62-112.01,27.99c-8.56,7.43-9.14,15.27-1.71,8.52
									c15.53-14.1,48.89-34.78,106.71-28.01c4,48.5,3,109-57.25,140.25c2,3,5.5,11.5,18,15.25c-2.25,1.5-10.25,8-20.5,10
									c3.5,3.5,9,7.75,13.25,9.75c-4.5,2.25-21.5,20.25-68.5,41c-0.5,0.25-1,1.25,1,1.25c37.5-15,55-25.5,72-42.5
									c-4.5-7-10.5-9-14.5-9c6-2,26.5-3,30.5-13.5c-15.5-1.5-24-10-28-12C299.71-153.25,358.86-172.86,338.71-288.75z"/>
								<path class="st2" d="M338.71-288.75c-32.57-18.01-83.93,3.62-112.01,27.99c-8.56,7.43-9.14,15.27-1.71,8.52
									c15.53-14.1,48.89-34.78,106.71-28.01c4,48.5,3,109-57.25,140.25c2,3,5.5,11.5,18,15.25c-2.25,1.5-10.25,8-20.5,10
									c3.5,3.5,9,7.75,13.25,9.75c-4.5,2.25-21.5,20.25-68.5,41c-0.5,0.25-1,1.25,1,1.25c37.5-15,55-25.5,72-42.5
									c-4.5-7-10.5-9-14.5-9c6-2,26.5-3,30.5-13.5c-15.5-1.5-24-10-28-12C299.71-153.25,358.86-172.86,338.71-288.75z"/>
							</g>
						</g>
						<g transform="matrix(1,0,0,1,500,500)">
							<g transform="matrix(1,0,0,1,0,0)">
								<path class="st5" d="M-232.57-273.28c-3.37,3.34,1.38,18.9,6.84,24.18c5.46,5.28-7.85-25.61-47.37-24.5
									c-0.97,15.35,10.93,51.75,45.35,54.57c-21.72-5.79-38.06-33.04-37.41-45.58c2.5,1.28,8.13-1.55,40.71,17.42
									c0.75-4.8-4.26-12.09-0.71-17.72c6.59,1.93,22.08,14.05,34.71,21.17c2.25-1.75-0.75-7,1.62-7.75
									c3.38,1,9.12,3.62,23.38,13.88c-11.5-17-23.75-17.12-26.75-17.12s-1.5,5,1,9.5C-198.21-249.5-198.29-260.74-232.57-273.28z"
									/>
								<path class="st2" d="M-232.57-273.28c-3.37,3.34,1.38,18.9,6.84,24.18c5.46,5.28-7.85-25.61-47.37-24.5
									c-0.97,15.35,10.93,51.75,45.35,54.57c-21.72-5.79-38.06-33.04-37.41-45.58c2.5,1.28,8.13-1.55,40.71,17.42
									c0.75-4.8-4.26-12.09-0.71-17.72c6.59,1.93,22.08,14.05,34.71,21.17c2.25-1.75-0.75-7,1.62-7.75
									c3.38,1,9.12,3.62,23.38,13.88c-11.5-17-23.75-17.12-26.75-17.12s-1.5,5,1,9.5C-198.21-249.5-198.29-260.74-232.57-273.28z"
									/>
							</g>
						</g>
						<g transform="matrix(1,0,0,1,500,500)">
							<g transform="matrix(1,0,0,1,0,0)">
								<path class="st6" d="M-49.96-264.25c-17.75,32.5-29.25,50.25-64.25,63.5c-0.5,13,5,34.75,10.5,48.5
									C-89.21-160.25-45.07-200.66-49.96-264.25z"/>
								<path class="st2" d="M-49.96-264.25c-17.75,32.5-29.25,50.25-64.25,63.5c-0.5,13,5,34.75,10.5,48.5
									C-89.21-160.25-45.07-200.66-49.96-264.25z"/>
							</g>
						</g>
						<g transform="matrix(-1,0,0,1,468,500)">
							<g transform="matrix(1,0,0,1,0,0)">
								<path class="st6" d="M336.46-264.25c-17.75,32.5-29.25,50.25-64.25,63.5c-0.5,13,5,34.75,10.5,48.5
									C297.21-160.25,341.35-200.66,336.46-264.25z"/>
								<path class="st2" d="M336.46-264.25c-17.75,32.5-29.25,50.25-64.25,63.5c-0.5,13,5,34.75,10.5,48.5
									C297.21-160.25,341.35-200.66,336.46-264.25z"/>
							</g>
						</g>
					</g>
				</g>
			</g>
		</g>
	</g>
</g>
</svg>
