<?xml version="1.0" encoding="utf-8"?>
<!-- Generator: Adobe Illustrator 24.0.1, SVG Export Plug-In . SVG Version: 6.00 Build 0)  -->
<svg version="1.1" id="Layer_1" xmlns="http://www.w3.org/2000/svg" xmlns:xlink="http://www.w3.org/1999/xlink" x="0px" y="0px"
	 viewBox="0 0 1000 1000" style="enable-background:new 0 0 1000 1000;" xml:space="preserve">
<style type="text/css">
	.st0{clip-path:url(#SVGID_2_);}
	.st1{display:none;}
	.st2{display:inline;}
	.st3{fill:#FFEDC9;}
	.st4{fill-opacity:0;}
	.st5{fill:#FFFFFF;}
	.st6{fill:#F4DBA8;}
	.st7{fill:#E29C9C;}
</style>
<g>
	<g>
		<g>
			<g transform="matrix(1.048050045967102,0,0,1.048050045967102,-60.050048828125,-28.050048828125)">
				<g>
					<g>
						<defs>
							<rect id="SVGID_1_" x="-486.7" y="-1104.2" width="3328.7" height="4283.1"/>
						</defs>
						<clipPath id="SVGID_2_">
							<use xlink:href="#SVGID_1_"  style="overflow:visible;"/>
						</clipPath>
						<g transform="matrix(2.461899995803833,0,0,2.7926299571990967,-182.949951171875,-396.31494140625)" class="st0">
							<g transform="matrix(1,0,0,1,500,500)" class="st1">
								<g transform="matrix(1,0,0,1,0,0)" class="st2">
									<path class="st3" d="M-376.2-286.2c-7.5,7-7.5,78,12.5,108.5s45,38,45,38l-11,8l-9,8l22,10l45.5,25c0,0,101-1.5,103-1.5
										s63.2-23.2,67-24.5s21.5-9.2,21.5-9.2s-8.5-7.8-19.5-15.5c81-42.2,63.5-130.8,57-144.8c-78.5-14-115.5,38.5-123,47
										c-1-1-9.5-8-18.5-13.5s-7,1-7.5,6c-4-1-26.5-20.5-26.5-20.5l-11-1l-1,13l-34-16c0,0-2,1-5.5,10.5
										C-300.7-285.2-368.7-293.2-376.2-286.2z"/>
									<path class="st4" d="M-376.2-286.2c-7.5,7-7.5,78,12.5,108.5s45,38,45,38l-11,8l-9,8l22,10l45.5,25c0,0,101-1.5,103-1.5
										s63.2-23.2,67-24.5s21.5-9.2,21.5-9.2s-8.5-7.8-19.5-15.5c81-42.2,63.5-130.8,57-144.8c-78.5-14-115.5,38.5-123,47
										c-1-1-9.5-8-18.5-13.5s-7,1-7.5,6c-4-1-26.5-20.5-26.5-20.5l-11-1l-1,13l-34-16c0,0-2,1-5.5,10.5
										C-300.7-285.2-368.7-293.2-376.2-286.2z"/>
								</g>
							</g>
							<g transform="matrix(1,0,0,1,500,500)" class="st1">
								<g transform="matrix(1,0,0,1,0,0)" class="st2">
									<path class="st5" d="M-162.2-117.2c-19.5,2.5-8.5,18-49,18c0,25,2,49.5,2,49.5s30.5,1,33-0.5s17-13,17-13s51-23,58-31
										s13.5-11,13.5-11l-13.5-9C-101.2-114.2-142.7-119.7-162.2-117.2z"/>
									<path class="st4" d="M-162.2-117.2c-19.5,2.5-8.5,18-49,18c0,25,2,49.5,2,49.5s30.5,1,33-0.5s17-13,17-13s51-23,58-31
										s13.5-11,13.5-11l-13.5-9C-101.2-114.2-142.7-119.7-162.2-117.2z"/>
								</g>
							</g>
							<g transform="matrix(1,0,0,1,500,500)" class="st1">
								<g transform="matrix(1,0,0,1,0,0)" class="st2">
									<path class="st6" d="M-70.7-283.2c-1-0.5,14.5,3,0,24.5c-24.5,36.3-6.5,42.2-43,58.8c1,21.5,8,40.2,10,46.8s1.5,14,3.5,14
										s50-38.5,56.5-51.5s7-80,5-89S-69.7-282.8-70.7-283.2z"/>
									<path class="st4" d="M-70.7-283.2c-1-0.5,14.5,3,0,24.5c-24.5,36.3-6.5,42.2-43,58.8c1,21.5,8,40.2,10,46.8s1.5,14,3.5,14
										s50-38.5,56.5-51.5s7-80,5-89S-69.7-282.8-70.7-283.2z"/>
								</g>
							</g>
							<g transform="matrix(-1,0,0,1,469,500)" class="st1">
								<g transform="matrix(1,0,0,1,0,0)" class="st2">
									<path class="st6" d="M316.2-283.2c-1-0.5,14.5,3,0,24.5c-24.5,36.3-6.5,42.2-43,58.8c1,21.5,8,40.2,10,46.8s1.5,14,3.5,14
										c1,0,14.7-7,27.3-17.8c13.4-11.5,25.8-27,29.2-33.7c6.5-13,7-80,5-89S317.2-282.8,316.2-283.2z"/>
									<path class="st4" d="M316.2-283.2c-1-0.5,14.5,3,0,24.5c-24.5,36.3-6.5,42.2-43,58.8c1,21.5,8,40.2,10,46.8s1.5,14,3.5,14
										c1,0,14.7-7,27.3-17.8c13.4-11.5,25.8-27,29.2-33.7c6.5-13,7-80,5-89S317.2-282.8,316.2-283.2z"/>
								</g>
							</g>
							<g transform="matrix(-1,0,0,1,467,500)" class="st1">
								<g transform="matrix(1,0,0,1,0,0)" class="st2">
									<path class="st5" d="M223.7-117.2c-19.5,2.5-8.5,18-49,18c0,25,2,49.5,2,49.5s30.5,1,33-0.5c2.5-1.5,17-13,17-13
										s51-23,58-31s13.5-11,13.5-11l-13.5-9C284.7-114.2,243.2-119.7,223.7-117.2z"/>
									<path class="st4" d="M223.7-117.2c-19.5,2.5-8.5,18-49,18c0,25,2,49.5,2,49.5s30.5,1,33-0.5c2.5-1.5,17-13,17-13
										s51-23,58-31s13.5-11,13.5-11l-13.5-9C284.7-114.2,243.2-119.7,223.7-117.2z"/>
								</g>
							</g>
							<g transform="matrix(1,0,0,1,481,509)">
								<g transform="matrix(1,0,0,1,0,0)">
									<path class="st5" d="M-163.7-194.2l-15,54l56.5,4.5l-6.5-34l-24,8.5l11,9.5l-2.5-8l11.5-3v19l-29.5-6l3.5-30.5l55.5,9.5
										l-5,48l11-51L-163.7-194.2z"/>
									<path class="st4" d="M-163.7-194.2l-15,54l56.5,4.5l-6.5-34l-24,8.5l11,9.5l-2.5-8l11.5-3v19l-29.5-6l3.5-30.5l55.5,9.5
										l-5,48l11-51L-163.7-194.2z"/>
								</g>
							</g>
							
								<g transform="matrix(-0.8910065293312073,0.45399048924446106,-0.45399048924446106,-0.8910065293312073,490.64129638671875,534.8283081054688)">
								<g transform="matrix(1,0,0,1,0,0)">
									<path class="st5" d="M116.1,244.5l-15,54l56.5,4.5l-6.5-34l-24,8.5l11,9.5l-2.5-8l11.5-3v19l-29.5-6l3.5-30.5l55.5,9.5
										l-5,48l11-51L116.1,244.5z"/>
									<path class="st4" d="M116.1,244.5l-15,54l56.5,4.5l-6.5-34l-24,8.5l11,9.5l-2.5-8l11.5-3v19l-29.5-6l3.5-30.5l55.5,9.5
										l-5,48l11-51L116.1,244.5z"/>
								</g>
							</g>
							<g transform="matrix(0.6306800246238708,0,0,0.7298099994659424,503.771240234375,523.8927001953125)">
								<g transform="matrix(1,0,0,1,0,0)">
									<path class="st5" d="M-263-186.6c2.5-10.5-2.2-3.8-3.2,3s15.8,51.3,2,65.8c-26.2,27.7-75.9,12.3-75.9,12.3s0,3.8,0,13.2
										c38.1,6.3,66.6,0.2,83.6-25.3S-265.5-176.1-263-186.6z"/>
									<path class="st4" d="M-263-186.6c2.5-10.5-2.2-3.8-3.2,3s15.8,51.3,2,65.8c-26.2,27.7-75.9,12.3-75.9,12.3s0,3.8,0,13.2
										c38.1,6.3,66.6,0.2,83.6-25.3S-265.5-176.1-263-186.6z"/>
								</g>
							</g>
							<g transform="matrix(-0.6309999823570251,0,0,0.7298099994659424,459.2384033203125,523.8927001953125)">
								<g transform="matrix(1,0,0,1,0,0)">
									<path class="st5" d="M345.6-186.6c2.5-10.5-2.2-3.8-3.2,3s15.8,51.3,2,65.8c-26.2,27.7-75.9,12.3-75.9,12.3s0,3.8,0,13.2
										c38.1,6.3,66.6,0.2,83.6-25.3S343.1-176.1,345.6-186.6z"/>
									<path class="st4" d="M345.6-186.6c2.5-10.5-2.2-3.8-3.2,3s15.8,51.3,2,65.8c-26.2,27.7-75.9,12.3-75.9,12.3s0,3.8,0,13.2
										c38.1,6.3,66.6,0.2,83.6-25.3S343.1-176.1,345.6-186.6z"/>
								</g>
							</g>
							
								<g transform="matrix(0.4694715738296509,-0.882947564125061,0.882947564125061,0.4694715738296509,362.1400146484375,661.4011840820312)">
								<g transform="matrix(1,0,0,1,0,0)">
									<path class="st5" d="M193-157.5c-14-8-12.5,2.5-3,6.5C199.5-147,207-149.5,193-157.5z"/>
									<path class="st4" d="M193-157.5c-14-8-12.5,2.5-3,6.5C199.5-147,207-149.5,193-157.5z"/>
								</g>
							</g>
							
								<g transform="matrix(-0.4694715738296509,-0.882947564125061,-0.882947564125061,0.4694715738296509,605.8599853515625,661.4011840820312)">
								<g transform="matrix(1,0,0,1,0,0)">
									<path class="st5" d="M374.4,183.7c-14-8-12.5,2.5-3,6.5S388.4,191.7,374.4,183.7z"/>
									<path class="st4" d="M374.4,183.7c-14-8-12.5,2.5-3,6.5S388.4,191.7,374.4,183.7z"/>
								</g>
							</g>
							<g transform="matrix(1,0,0,1,510,500)">
								<g transform="matrix(1,0,0,1,0,0)">
									<path class="st5" d="M-47.2-288.8c-42.5-23.5-115.5,20.5-128.5,50c2.5,2.5,5.5-1.5,5.5-1.5s30.5-50,116-40
										c6,61.5,3,109-57.2,140.2c2,3,5.5,11.5,18,15.3c-2.2,1.5-10.2,8-20.5,10c3.5,3.5,9,7.8,13.2,9.8
										c-4.5,2.2-22.8,20.2-69.8,41c-1.2,1-0.2,1.8,1,1.2c37.5-15,56.2-25.5,73.2-42.5c-4.5-7-10.5-9-14.5-9c6-2,26.5-3,30.5-13.5
										c-15.5-1.5-24-10-28-12C-86.2-153.2-27-172.9-47.2-288.8z"/>
									<path class="st4" d="M-47.2-288.8c-42.5-23.5-115.5,20.5-128.5,50c2.5,2.5,5.5-1.5,5.5-1.5s30.5-50,116-40
										c6,61.5,3,109-57.2,140.2c2,3,5.5,11.5,18,15.3c-2.2,1.5-10.2,8-20.5,10c3.5,3.5,9,7.8,13.2,9.8
										c-4.5,2.2-22.8,20.2-69.8,41c-1.2,1-0.2,1.8,1,1.2c37.5-15,56.2-25.5,73.2-42.5c-4.5-7-10.5-9-14.5-9c6-2,26.5-3,30.5-13.5
										c-15.5-1.5-24-10-28-12C-86.2-153.2-27-172.9-47.2-288.8z"/>
								</g>
							</g>
							<g transform="matrix(-1,0,0,1,457,500)">
								<g transform="matrix(1,0,0,1,0,0)">
									<path class="st5" d="M338.7-288.8c-32.6-18-83.9,3.6-112,28c-8.6,7.4-9.1,15.3-1.7,8.5c15.5-14.1,48.9-34.8,106.7-28
										c4,48.5,3,109-57.2,140.2c2,3,5.5,11.5,18,15.3c-2.2,1.5-10.2,8-20.5,10c3.5,3.5,9,7.8,13.2,9.8
										c-4.5,2.2-21.5,20.2-68.5,41c-0.5,0.2-1,1.2,1,1.2c37.5-15,55-25.5,72-42.5c-4.5-7-10.5-9-14.5-9c6-2,26.5-3,30.5-13.5
										c-15.5-1.5-24-10-28-12C299.7-153.2,358.9-172.9,338.7-288.8z"/>
									<path class="st4" d="M338.7-288.8c-32.6-18-83.9,3.6-112,28c-8.6,7.4-9.1,15.3-1.7,8.5c15.5-14.1,48.9-34.8,106.7-28
										c4,48.5,3,109-57.2,140.2c2,3,5.5,11.5,18,15.3c-2.2,1.5-10.2,8-20.5,10c3.5,3.5,9,7.8,13.2,9.8
										c-4.5,2.2-21.5,20.2-68.5,41c-0.5,0.2-1,1.2,1,1.2c37.5-15,55-25.5,72-42.5c-4.5-7-10.5-9-14.5-9c6-2,26.5-3,30.5-13.5
										c-15.5-1.5-24-10-28-12C299.7-153.2,358.9-172.9,338.7-288.8z"/>
								</g>
							</g>
							<g transform="matrix(1,0,0,1,500,500)">
								<g transform="matrix(1,0,0,1,0,0)">
									<path class="st5" d="M-232.6-273.3c-3.4,3.3,1.4,18.9,6.8,24.2c5.5,5.3-7.9-25.6-47.4-24.5c-1,15.4,10.9,51.8,45.4,54.6
										c-21.7-5.8-38.1-33-37.4-45.6c2.5,1.3,8.1-1.5,40.7,17.4c0.8-4.8-4.3-12.1-0.7-17.7c6.6,1.9,22.1,14.1,34.7,21.2
										c2.2-1.8-0.8-7,1.6-7.8c3.4,1,9.1,3.6,23.4,13.9c-11.5-17-23.8-17.1-26.8-17.1s-1.5,5,1,9.5
										C-198.2-249.5-198.3-260.7-232.6-273.3z"/>
									<path class="st4" d="M-232.6-273.3c-3.4,3.3,1.4,18.9,6.8,24.2c5.5,5.3-7.9-25.6-47.4-24.5c-1,15.4,10.9,51.8,45.4,54.6
										c-21.7-5.8-38.1-33-37.4-45.6c2.5,1.3,8.1-1.5,40.7,17.4c0.8-4.8-4.3-12.1-0.7-17.7c6.6,1.9,22.1,14.1,34.7,21.2
										c2.2-1.8-0.8-7,1.6-7.8c3.4,1,9.1,3.6,23.4,13.9c-11.5-17-23.8-17.1-26.8-17.1s-1.5,5,1,9.5
										C-198.2-249.5-198.3-260.7-232.6-273.3z"/>
								</g>
							</g>
							<g transform="matrix(1,0,0,1,500,500)" class="st1">
								<g transform="matrix(1,0,0,1,0,0)" class="st2">
									<path class="st7" d="M-50-264.2c-17.8,32.5-29.2,50.2-64.2,63.5c-0.5,13,5,34.8,10.5,48.5C-89.2-160.2-45.1-200.7-50-264.2
										z"/>
									<path class="st4" d="M-50-264.2c-17.8,32.5-29.2,50.2-64.2,63.5c-0.5,13,5,34.8,10.5,48.5C-89.2-160.2-45.1-200.7-50-264.2
										z"/>
								</g>
							</g>
							<g transform="matrix(-1,0,0,1,468,500)" class="st1">
								<g transform="matrix(1,0,0,1,0,0)" class="st2">
									<path class="st7" d="M336.5-264.2c-17.8,32.5-29.2,50.2-64.2,63.5c-0.5,13,5,34.8,10.5,48.5
										C297.2-160.2,341.4-200.7,336.5-264.2z"/>
									<path class="st4" d="M336.5-264.2c-17.8,32.5-29.2,50.2-64.2,63.5c-0.5,13,5,34.8,10.5,48.5
										C297.2-160.2,341.4-200.7,336.5-264.2z"/>
								</g>
							</g>
						</g>
					</g>
				</g>
			</g>
		</g>
	</g>
</g>
</svg>
